{
  "accessors": [
    {
      "bufferView": 3,
      "componentType": 5126,
      "count": 3695,
      "max": [
        31.575551986694336,
        23.090721130371094,
        14.934820175170898
      ],
      "min": [
        -20.225513458251953,
        3.562856912612915,
        -13.379293441772461
      ],
      "type": "VEC3"
    },
    {
      "bufferView": 3,
      "byteOffset": 44340,
      "componentType": 5126,
      "count": 3695,
      "max": [
        0.99981075525283813,
        0.9988938570022583,
        0.999794602394104
      ],
      "min": [
        -0.99628758430480957,
        -0.99987161159515381,
        -0.99401009082794189
      ],
      "type": "VEC3"
    },
    {
      "bufferView": 2,
      "componentType": 5126,
      "count": 3695,
      "max": [
        0,
        0
      ],
      "min": [
        0,
        0
      ],
      "type": "VEC2"
    },
    {
      "bufferView": 1,
      "componentType": 5125,
      "count": 22158,
      "max": [
        3694
      ],
      "min": [
        0
      ],
      "type": "SCALAR"
    },
    {
      "bufferView": 5,
      "componentType": 5126,
      "count": 10,
      "max": [
        1,
        0.067640922963619232,
        0.97110015153884888,
        0,
        0.018755719065666199,
        1,
        5.6459615734638646e-05,
        0,
        0.94732308387756348,
        0.14383509755134583,
        1,
        0,
        39.425197601318359,
        0,
        5.1540946960449219,
        1
      ],
      "min": [
        0.23596575856208801,
        -0.018755719065666199,
        -0.95818030834197998,
        0,
        -0.15022800862789154,
        0.98865139484405518,
        -0.010965829715132713,
        0,
        -0.96007901430130005,
        -0.14588963985443115,
        0.23867237567901611,
        0,
        -13.00563907623291,
        -12.759148597717285,
        -6.0401015281677246,
        1
      ],
      "type": "MAT4"
    },
    {
      "bufferView": 0,
      "componentType": 5123,
      "count": 3695,
      "max": [
        8,
        8,
        3,
        6
      ],
      "min": [
        2,
        2,
        2,
        2
      ],
      "type": "VEC4"
    },
    {
      "bufferView": 4,
      "componentType": 5126,
      "count": 3695,
      "max": [
        1,
        0.49900367856025696,
        0.023948650807142258,
        0.023948650807142258
      ],
      "min": [
        0.50099629163742065,
        0,
        0,
        0
      ],
      "type": "VEC4"
    },
    {
      "bufferView": 6,
      "componentType": 5126,
      "count": 235,
      "max": [
        4.9583334922790527
      ],
      "min": [
        0.041666667908430099
      ],
      "type": "SCALAR"
    },
    {
      "bufferView": 7,
      "componentType": 5126,
      "count": 235,
      "max": [
        8.858245849609375,
        0,
        8.8817841970012523e-16
      ],
      "min": [
        8.858245849609375,
        -7.1054273576010019e-15,
        -8.8817841970012523e-16
      ],
      "type": "VEC3"
    },
    {
      "bufferView": 6,
      "byteOffset": 940,
      "componentType": 5126,
      "count": 236,
      "max": [
        4.9583334922790527
      ],
      "min": [
        0.041666667908430099
      ],
      "type": "SCALAR"
    },
    {
      "bufferView": 8,
      "componentType": 5126,
      "count": 236,
      "max": [
        0.00024517651763744652,
        0.054009996354579926,
        -0.0045269764959812164,
        0.99998968839645386
      ],
      "min": [
        -0.00033586460631340742,
        -0.073987700045108795,
        -0.0045394184999167919,
        0.99724882841110229
      ],
      "type": "VEC4"
    },
    {
      "bufferView": 6,
      "byteOffset": 1884,
      "componentType": 5126,
      "count": 234,
      "max": [
        4.9583334922790527
      ],
      "min": [
        0.041666667908430099
      ],
      "type": "SCALAR"
    },
    {
      "bufferView": 7,
      "byteOffset": 2820,
      "componentType": 5126,
      "count": 234,
      "max": [
        19.226984024047852,
        2.4744650772845489e-12,
        6.6613381477509392e-16
      ],
      "min": [
        19.226984024047852,
        2.4709123636057484e-12,
        -7.7715611723760958e-16
      ],
      "type": "VEC3"
    },
    {
      "bufferView": 6,
      "byteOffset": 2820,
      "componentType": 5126,
      "count": 236,
      "max": [
        4.9583334922790527
      ],
      "min": [
        0.041666667908430099
      ],
      "type": "SCALAR"
    },
    {
      "bufferView": 8,
      "byteOffset": 3776,
      "componentType": 5126,
      "count": 236,
      "max": [
        0.0053937346674501896,
        0.1255442351102829,
        -0.042566951364278793,
        0.99907839298248291
      ],
      "min": [
        -0.0055188941769301891,
        -0.1284574419260025,
        -0.042923226952552795,
        0.99078571796417236
      ],
      "type": "VEC4"
    },
    {
      "bufferView": 6,
      "byteOffset": 3764,
      "componentType": 5126,
      "count": 206,
      "max": [
        4.9583334922790527
      ],
      "min": [
        0.041666667908430099
      ],
      "type": "SCALAR"
    },
    {
      "bufferView": 7,
      "byteOffset": 5628,
      "componentType": 5126,
      "count": 206,
      "max": [
        7.2203512191772461,
        -1.1560126543045044,
        1.7763568394002505e-15
      ],
      "min": [
        7.2203512191772461,
        -1.1560126543045044,
        -8.8817841970012523e-16
      ],
      "type": "VEC3"
    },
    {
      "bufferView": 6,
      "byteOffset": 4588,
      "componentType": 5126,
      "count": 236,
      "max": [
        4.9583334922790527
      ],
      "min": [
        0.041666667908430099
      ],
      "type": "SCALAR"
    },
    {
      "bufferView": 8,
      "byteOffset": 7552,
      "componentType": 5126,
      "count": 236,
      "max": [
        0.12278556078672409,
        -0.60634595155715942,
        0.10733675211668015,
        0.78792345523834229
      ],
      "min": [
        -0.076068051159381866,
        -0.61577308177947998,
        -0.047955792397260666,
        0.77829760313034058
      ],
      "type": "VEC4"
    },
    {
      "bufferView": 6,
      "byteOffset": 5532,
      "componentType": 5126,
      "count": 236,
      "max": [
        4.9583334922790527
      ],
      "min": [
        0.041666667908430099
      ],
      "type": "SCALAR"
    },
    {
      "bufferView": 8,
      "byteOffset": 11328,
      "componentType": 5126,
      "count": 236,
      "max": [
        0.12964154779911041,
        0.61575692892074585,
        0.15186208486557007,
        0.78793597221374512
      ],
      "min": [
        -0.040783807635307312,
        0.6019548773765564,
        -0.06647152453660965,
        0.77316319942474365
      ],
      "type": "VEC4"
    },
    {
      "bufferView": 6,
      "byteOffset": 6476,
      "componentType": 5126,
      "count": 205,
      "max": [
        4.9583334922790527
      ],
      "min": [
        0.041666667908430099
      ],
      "type": "SCALAR"
    },
    {
      "bufferView": 7,
      "byteOffset": 8100,
      "componentType": 5126,
      "count": 205,
      "max": [
        8.1541318893432617,
        -1.1560126543045044,
        6.2172489379008766e-15
      ],
      "min": [
        8.1541318893432617,
        -1.1560126543045044,
        2.6645352591003757e-15
      ],
      "type": "VEC3"
    },
    {
      "bufferView": 6,
      "byteOffset": 7296,
      "componentType": 5126,
      "count": 236,
      "max": [
        4.9583334922790527
      ],
      "min": [
        0.041666667908430099
      ],
      "type": "SCALAR"
    },
    {
      "bufferView": 8,
      "byteOffset": 15104,
      "componentType": 5126,
      "count": 236,
      "max": [
        0.10685782879590988,
        0.59868955612182617,
        0.076912917196750641,
        0.80098104476928711
      ],
      "min": [
        -0.087826207280158997,
        0.59372860193252563,
        -0.068609632551670074,
        0.79382121562957764
      ],
      "type": "VEC4"
    },
    {
      "bufferView": 6,
      "byteOffset": 8240,
      "componentType": 5126,
      "count": 236,
      "max": [
        4.9583334922790527
      ],
      "min": [
        0.041666667908430099
      ],
      "type": "SCALAR"
    },
    {
      "bufferView": 8,
      "byteOffset": 18880,
      "componentType": 5126,
      "count": 236,
      "max": [
        0.039651237428188324,
        -0.58993667364120483,
        0.12194687128067017,
        0.80099570751190186
      ],
      "min": [
        -0.10188516974449158,
        -0.59867006540298462,
        -0.067572124302387238,
        0.79165846109390259
      ],
      "type": "VEC4"
    },
    {
      "bufferView": 6,
      "byteOffset": 9184,
      "componentType": 5126,
      "count": 1,
      "max": [
        0.041666667908430099
      ],
      "min": [
        0.041666667908430099
      ],
      "type": "SCALAR"
    },
    {
      "bufferView": 7,
      "byteOffset": 10560,
      "componentType": 5126,
      "count": 1,
      "max": [
        34.608940124511719,
        2.4158453015843406e-13,
        0
      ],
      "min": [
        34.608940124511719,
        2.4158453015843406e-13,
        0
      ],
      "type": "VEC3"
    },
    {
      "bufferView": 6,
      "byteOffset": 9188,
      "componentType": 5126,
      "count": 236,
      "max": [
        4.9583334922790527
      ],
      "min": [
        0.041666667908430099
      ],
      "type": "SCALAR"
    },
    {
      "bufferView": 8,
      "byteOffset": 22656,
      "componentType": 5126,
      "count": 236,
      "max": [
        1.7612615920370445e-05,
        0.061048537492752075,
        -0.00028796374681405723,
        0.99999994039535522
      ],
      "min": [
        -1.7612615920370445e-05,
        -0.061048537492752075,
        -0.00028850184753537178,
        0.99813473224639893
      ],
      "type": "VEC4"
    }
  ],
  "animations": [
    {
      "channels": [
        {
          "sampler": 0,
          "target": {
            "node": 12,
            "path": "translation"
          }
        },
        {
          "sampler": 1,
          "target": {
            "node": 12,
            "path": "rotation"
          }
        },
        {
          "sampler": 2,
          "target": {
            "node": 11,
            "path": "translation"
          }
        },
        {
          "sampler": 3,
          "target": {
            "node": 11,
            "path": "rotation"
          }
        },
        {
          "sampler": 4,
          "target": {
            "node": 15,
            "path": "translation"
          }
        },
        {
          "sampler": 5,
          "target": {
            "node": 15,
            "path": "rotation"
          }
        },
        {
          "sampler": 6,
          "target": {
            "node": 14,
            "path": "rotation"
          }
        },
        {
          "sampler": 7,
          "target": {
            "node": 17,
            "path": "translation"
          }
        },
        {
          "sampler": 8,
          "target": {
            "node": 17,
            "path": "rotation"
          }
        },
        {
          "sampler": 9,
          "target": {
            "node": 16,
            "path": "rotation"
          }
        },
        {
          "sampler": 10,
          "target": {
            "node": 10,
            "path": "translation"
          }
        },
        {
          "sampler": 11,
          "target": {
            "node": 10,
            "path": "rotation"
          }
        }
      ],
      "name": "Take 001",
      "samplers": [
        {
          "input": 7,
          "interpolation": "LINEAR",
          "output": 8
        },
        {
          "input": 9,
          "interpolation": "LINEAR",
          "output": 10
        },
        {
          "input": 11,
          "interpolation": "LINEAR",
          "output": 12
        },
        {
          "input": 13,
          "interpolation": "LINEAR",
          "output": 14
        },
        {
          "input": 15,
          "interpolation": "LINEAR",
          "output": 16
        },
        {
          "input": 17,
          "interpolation": "LINEAR",
          "output": 18
        },
        {
          "input": 19,
          "interpolation": "LINEAR",
          "output": 20
        },
        {
          "input": 21,
          "interpolation": "LINEAR",
          "output": 22
        },
        {
          "input": 23,
          "interpolation": "LINEAR",
          "output": 24
        },
        {
          "input": 25,
          "interpolation": "LINEAR",
          "output": 26
        },
        {
          "input": 27,
          "interpolation": "LINEAR",
          "output": 28
        },
        {
          "input": 29,
          "interpolation": "LINEAR",
          "output": 30
        }
      ]
    }
  ],
  "asset": {
    "extras": {
      "author": "Matt Rafferty (https://sketchfab.com/Matt-AeroLab)",
      "license": "CC-BY-4.0 (http://creativecommons.org/licenses/by/4.0/)",
      "source": "https://sketchfab.com/3d-models/animation-shark-swim-cycle-a8cad91445b74818b855f1b2fc2254ef",
      "title": "(Animation) Shark Swim Cycle"
    },
    "generator": "Sketchfab-9.65.0",
    "version": "2.0"
  },
  "bufferViews": [
    {
      "buffer": 0,
      "byteLength": 29560,
      "byteOffset": 0,
      "byteStride": 8,
      "name": "shortBufferViews",
      "target": 34962
    },
    {
      "buffer": 0,
      "byteLength": 88632,
      "byteOffset": 29560,
      "name": "floatBufferViews",
      "target": 34963
    },
    {
      "buffer": 0,
      "byteLength": 29560,
      "byteOffset": 118192,
      "byteStride": 8,
      "name": "floatBufferViews",
      "target": 34962
    },
    {
      "buffer": 0,
      "byteLength": 88680,
      "byteOffset": 147752,
      "byteStride": 12,
      "name": "floatBufferViews",
      "target": 34962
    },
    {
      "buffer": 0,
      "byteLength": 59120,
      "byteOffset": 236432,
      "byteStride": 16,
      "name": "floatBufferViews",
      "target": 34962
    },
    {
      "buffer": 0,
      "byteLength": 640,
      "byteOffset": 295552,
      "byteStride": 64,
      "name": "floatBufferViews"
    },
    {
      "buffer": 0,
      "byteLength": 10132,
      "byteOffset": 296192,
      "name": "floatBufferViews"
    },
    {
      "buffer": 0,
      "byteLength": 10572,
      "byteOffset": 306324,
      "byteStride": 12,
      "name": "floatBufferViews"
    },
    {
      "buffer": 0,
      "byteLength": 26432,
      "byteOffset": 316896,
      "byteStride": 16,
      "name": "floatBufferViews"
    }
  ],
  "buffers": [
    {
      "byteLength": 343328,
      "uri": "scene.bin"
    }
  ],
  "images": [
    {
      "uri": "textures/lambert1_baseColor.jpeg"
    }
  ],
  "materials": [
    {
      "doubleSided": true,
      "emissiveFactor": [
        0,
        0,
        0
      ],
      "name": "lambert1",
      "pbrMetallicRoughness": {
        "baseColorFactor": [
          1,
          1,
          1,
          1
        ],
        "baseColorTexture": {
          "index": 0,
          "texCoord": 0
        },
        "metallicFactor": 0,
        "roughnessFactor": 1
      }
    }
  ],
  "meshes": [
    {
      "name": "Shark_Retopo2:polySurface1_lambert1_0",
      "primitives": [
        {
          "attributes": {
            "JOINTS_0": 5,
            "NORMAL": 1,
            "POSITION": 0,
            "TEXCOORD_0": 2,
            "WEIGHTS_0": 6
          },
          "indices": 3,
          "material": 0,
          "mode": 4
        }
      ]
    }
  ],
  "nodes": [
    {
      "children": [
        1
      ],
      "name": "RootNode (gltf orientation matrix)",
      "rotation": [
        -0.70710678118654746,
        -0,
        -0,
        0.70710678118654757
      ]
    },
    {
      "children": [
        2
      ],
      "name": "RootNode (model correction matrix)"
    },
    {
      "children": [
        3
      ],
      "matrix": [
        1,
        0,
        0,
        0,
        0,
        0,
        1,
        0,
        0,
        -1,
        0,
        0,
        0,
        0,
        0,
        1
      ],
      "name": "c66a5d2066f74176bd465c9937a33f59.fbx"
    },
    {
      "children": [
        4
      ],
      "name": ""
    },
    {
      "children": [
        5
      ],
      "name": "RootNode"
    },
    {
      "children": [
        6,
        8,
        7,
        18
      ],
      "name": ""
    },
    {
      "children": [
        9
      ],
      "name": "_rootJoint"
    },
    {
      "matrix": [
        1,
        0,
        0,
        0,
        0,
        1,
        0,
        0,
        0,
        0,
        1,
        0,
        0,
        1.7763568394002505e-15,
        -0.40396097002477038,
        1
      ],
      "name": ""
    },
    {
      "mesh": 0,
      "name": "",
      "skin": 0
    },
    {
      "children": [
        10
      ],
      "name": "joint1_00",
      "rotation": [
        0,
        0,
        0.009378272108733654,
        0.99995601177215576
      ],
      "translation": [
        -39.635257720947266,
        10.827953338623047,
        1.0676889419555664
      ]
    },
    {
      "children": [
        11,
        14,
        16
      ],
      "name": "joint2_01",
      "rotation": [
        -1.2112646800233051e-05,
        -0.041984640061855316,
        -0.00028824748005717993,
        0.99911820888519287
      ],
      "translation": [
        34.608940124511719,
        2.4336088699783431e-13,
        0
      ]
    },
    {
      "children": [
        12
      ],
      "name": "joint3_02",
      "rotation": [
        -9.3219983682502061e-05,
        -0.0021697825286537409,
        -0.042923130095005035,
        0.99907612800598145
      ],
      "translation": [
        19.226984024047852,
        2.4726887204451486e-12,
        2.2204460492503131e-16
      ]
    },
    {
      "children": [
        13
      ],
      "name": "joint4_03",
      "rotation": [
        -1.5659001292078756e-05,
        -0.0034495254512876272,
        -0.0045393919572234154,
        0.99998384714126587
      ],
      "translation": [
        8.858245849609375,
        -7.1054273576010019e-15,
        2.2204460492503131e-16
      ]
    },
    {
      "name": "joint5_04",
      "rotation": [
        4.875315676423227e-19,
        1.8723557898151694e-20,
        0.038376521319150925,
        0.99926334619522095
      ],
      "translation": [
        6.5103321075439453,
        0,
        4.4408920985006262e-16
      ]
    },
    {
      "children": [
        15
      ],
      "name": "joint6_05",
      "rotation": [
        0.12494514137506485,
        0.6029471755027771,
        0.14583036303520203,
        0.77432352304458618
      ],
      "translation": [
        1.014086127281189,
        -0.018437929451465607,
        -6.2324309349060059
      ]
    },
    {
      "name": "joint7_06",
      "rotation": [
        0.11726547032594681,
        -0.60709160566329956,
        0.10303593426942825,
        0.7791483998298645
      ],
      "translation": [
        7.2203512191772461,
        -1.1560126543045044,
        8.8817841970012523e-16
      ]
    },
    {
      "children": [
        17
      ],
      "name": "joint8_07",
      "rotation": [
        -0.097963191568851471,
        -0.59060060977935791,
        0.11668414622545242,
        0.79245120286941528
      ],
      "translation": [
        0.79122650623321533,
        -0.01438593678176403,
        5.9020605087280273
      ]
    },
    {
      "name": "joint9_08",
      "rotation": [
        -0.082392111420631409,
        0.59423959255218506,
        0.072860188782215118,
        0.79673236608505249
      ],
      "translation": [
        8.1541318893432617,
        -1.1560126543045044,
        3.5527136788005009e-15
      ]
    },
    {
      "name": "Shark_Retopo2:polySurface1",
      "translation": [
        0,
        0,
        -0.40396097302436829
      ]
    }
  ],
  "samplers": [
    {
      "magFilter": 9729,
      "minFilter": 9987,
      "wrapS": 10497,
      "wrapT": 10497
    }
  ],
  "scene": 0,
  "scenes": [
    {
      "name": "OSG_Scene",
      "nodes": [
        0
      ]
    }
  ],
  "skins": [
    {
      "inverseBindMatrices": 4,
      "joints": [
        6,
        9,
        10,
        11,
        12,
        13,
        14,
        15,
        16,
        17
      ],
      "skeleton": 6
    }
  ],
  "textures": [
    {
      "sampler": 0,
      "source": 0
    }
  ]
}

